<svg xmlns="http://www.w3.org/2000/svg" xmlns:xlink="http://www.w3.org/1999/xlink" width="375" viewBox="0 0 375 375" height="375" version="1.0"><defs><g id="e"><path d="M 17.59375 -2.6875 L 10.203125 -11.125 C 10.023438 -11.070312 9.75 -11.015625 9.375 -10.953125 L 5.625 -10.390625 L 7.046875 -1.078125 L 3.640625 -0.5625 L -0.21875 -25.890625 L 6.546875 -26.921875 C 8.265625 -27.179688 9.847656 -27.109375 11.296875 -26.703125 C 12.753906 -26.304688 13.957031 -25.578125 14.90625 -24.515625 C 15.851562 -23.453125 16.453125 -22.09375 16.703125 -20.4375 C 16.941406 -18.875 16.816406 -17.382812 16.328125 -15.96875 C 15.835938 -14.5625 14.9375 -13.40625 13.625 -12.5 L 21.546875 -3.28125 Z M 8.796875 -14.25 C 10.617188 -14.519531 11.859375 -15.195312 12.515625 -16.28125 C 13.171875 -17.363281 13.40625 -18.523438 13.21875 -19.765625 C 13.101562 -20.503906 12.820312 -21.210938 12.375 -21.890625 C 11.9375 -22.566406 11.3125 -23.085938 10.5 -23.453125 C 9.695312 -23.816406 8.734375 -23.914062 7.609375 -23.75 L 3.6875 -23.15625 L 5.125 -13.6875 Z M 8.796875 -14.25"/></g><g id="f"><path d="M 19.171875 -13 L 17.859375 1.609375 L 14.578125 1.3125 L 14.796875 -1.078125 C 14.210938 -0.453125 13.398438 0.101562 12.359375 0.59375 C 11.316406 1.082031 10.175781 1.269531 8.9375 1.15625 C 7.539062 1.03125 6.3125 0.617188 5.25 -0.078125 C 4.1875 -0.785156 3.382812 -1.742188 2.84375 -2.953125 C 2.300781 -4.160156 2.101562 -5.5625 2.25 -7.15625 C 2.394531 -8.757812 2.851562 -10.125 3.625 -11.25 C 4.394531 -12.382812 5.378906 -13.222656 6.578125 -13.765625 C 7.773438 -14.316406 9.070312 -14.53125 10.46875 -14.40625 C 11.707031 -14.289062 12.757812 -13.914062 13.625 -13.28125 C 14.5 -12.65625 15.1875 -11.882812 15.6875 -10.96875 L 16.140625 -13.28125 Z M 10.0625 -1.46875 C 11.257812 -1.363281 12.316406 -1.609375 13.234375 -2.203125 C 14.148438 -2.796875 14.78125 -3.65625 15.125 -4.78125 L 15.390625 -7.6875 C 15.191406 -8.75 14.675781 -9.644531 13.84375 -10.375 C 13.007812 -11.101562 12.015625 -11.519531 10.859375 -11.625 C 9.992188 -11.707031 9.164062 -11.566406 8.375 -11.203125 C 7.59375 -10.835938 6.953125 -10.296875 6.453125 -9.578125 C 5.953125 -8.859375 5.660156 -8.015625 5.578125 -7.046875 C 5.492188 -6.097656 5.632812 -5.210938 6 -4.390625 C 6.375 -3.578125 6.921875 -2.90625 7.640625 -2.375 C 8.367188 -1.851562 9.175781 -1.550781 10.0625 -1.46875 Z M 10.0625 -1.46875"/></g><g id="g"><path d="M 13.328125 -18.078125 L 11.484375 -11.859375 L 15.3125 -10.71875 L 14.5625 -8.203125 L 10.734375 -9.34375 L 7.3125 2.171875 L 4.109375 1.21875 L 7.53125 -10.296875 L 4.953125 -11.0625 L 5.703125 -13.578125 L 8.28125 -12.8125 L 10.125 -19.03125 Z M 13.328125 -18.078125"/></g><g id="h"><path d="M 11.84375 -10.625 L 5.578125 2.640625 L 2.59375 1.234375 L 8.859375 -12.03125 Z M 11.21875 -17.078125 C 11.445312 -17.546875 11.816406 -17.851562 12.328125 -18 C 12.835938 -18.15625 13.328125 -18.125 13.796875 -17.90625 C 14.273438 -17.6875 14.613281 -17.332031 14.8125 -16.84375 C 15.007812 -16.351562 14.992188 -15.875 14.765625 -15.40625 C 14.546875 -14.9375 14.1875 -14.625 13.6875 -14.46875 C 13.1875 -14.3125 12.695312 -14.34375 12.21875 -14.5625 C 11.75 -14.78125 11.410156 -15.132812 11.203125 -15.625 C 10.992188 -16.125 11 -16.609375 11.21875 -17.078125 Z M 11.21875 -17.078125"/></g><g id="i"><path d="M 18.609375 -5.421875 C 19.710938 -4.617188 20.394531 -3.625 20.65625 -2.4375 C 20.914062 -1.257812 20.679688 -0.132812 19.953125 0.9375 L 13.640625 9.75 L 10.921875 7.8125 L 16.5625 -0.078125 C 17.007812 -0.785156 17.1875 -1.460938 17.09375 -2.109375 C 17.007812 -2.753906 16.609375 -3.347656 15.890625 -3.890625 C 14.835938 -4.640625 13.660156 -4.835938 12.359375 -4.484375 C 11.066406 -4.128906 9.953125 -3.300781 9.015625 -2 L 5.015625 3.59375 L 2.34375 1.671875 L 10.875 -10.265625 L 13.28125 -8.53125 L 11.828125 -6.09375 C 12.859375 -6.65625 13.96875 -6.878906 15.15625 -6.765625 C 16.351562 -6.648438 17.503906 -6.203125 18.609375 -5.421875 Z M 18.609375 -5.421875"/></g><g id="j"><path d="M 23.15625 4.078125 L 12.0625 13.859375 C 11.050781 14.742188 9.90625 15.285156 8.625 15.484375 C 7.351562 15.691406 6.066406 15.53125 4.765625 15 C 3.460938 14.476562 2.242188 13.578125 1.109375 12.296875 C 0.128906 11.179688 -0.53125 10.054688 -0.875 8.921875 C -1.21875 7.785156 -1.378906 6.488281 -1.359375 5.03125 L 1.609375 5 C 1.578125 6.101562 1.679688 7.082031 1.921875 7.9375 C 2.160156 8.800781 2.597656 9.597656 3.234375 10.328125 C 4.316406 11.546875 5.441406 12.226562 6.609375 12.375 C 7.773438 12.53125 8.863281 12.179688 9.875 11.328125 L 11.96875 9.515625 C 10.925781 9.710938 9.847656 9.601562 8.734375 9.1875 C 7.617188 8.769531 6.609375 8.046875 5.703125 7.015625 C 4.816406 6.003906 4.253906 4.84375 4.015625 3.53125 C 3.785156 2.226562 3.890625 0.9375 4.328125 -0.34375 C 4.765625 -1.625 5.523438 -2.738281 6.609375 -3.6875 C 7.722656 -4.675781 8.957031 -5.300781 10.3125 -5.5625 C 11.675781 -5.832031 13.003906 -5.753906 14.296875 -5.328125 C 15.597656 -4.898438 16.691406 -4.179688 17.578125 -3.171875 C 18.410156 -2.234375 18.988281 -1.195312 19.3125 -0.0625 C 19.644531 1.0625 19.691406 2.082031 19.453125 3 L 21.15625 1.8125 Z M 8.390625 5.9375 C 9.210938 6.875 10.1875 7.457031 11.3125 7.6875 C 12.4375 7.925781 13.507812 7.785156 14.53125 7.265625 L 16.703125 5.34375 C 17.285156 4.394531 17.515625 3.359375 17.390625 2.234375 C 17.273438 1.109375 16.820312 0.0976562 16.03125 -0.796875 C 15.070312 -1.878906 13.914062 -2.472656 12.5625 -2.578125 C 11.207031 -2.679688 9.984375 -2.25 8.890625 -1.28125 C 8.179688 -0.65625 7.679688 0.0820312 7.390625 0.9375 C 7.097656 1.789062 7.035156 2.660156 7.203125 3.546875 C 7.378906 4.441406 7.773438 5.238281 8.390625 5.9375 Z M 8.390625 5.9375"/></g><g id="k"><path d="M 11.75 14.140625 L 8.671875 4.796875 L 1.421875 4.296875 L 0.359375 1.078125 L 29.203125 3.328125 L 29.28125 3.53125 L 7.453125 22.546875 L 6.203125 18.78125 Z M 14.21875 12.09375 L 21.953125 5.6875 L 11.890625 5.03125 Z M 14.21875 12.09375"/></g><g id="l"><path d="M 16.109375 11.03125 C 16.203125 12.394531 15.957031 13.65625 15.375 14.8125 C 14.800781 15.96875 13.9375 16.90625 12.78125 17.625 C 11.632812 18.351562 10.289062 18.769531 8.75 18.875 C 7.207031 18.988281 5.832031 18.742188 4.625 18.140625 C 3.414062 17.546875 2.445312 16.671875 1.71875 15.515625 C 0.988281 14.359375 0.570312 13.035156 0.46875 11.546875 C 0.394531 10.484375 0.550781 9.453125 0.9375 8.453125 C 1.332031 7.453125 1.898438 6.632812 2.640625 6 L -6.59375 6.65625 L -6.828125 3.375 L 15.09375 1.8125 L 15.296875 4.65625 L 12.84375 5.125 C 13.75 5.8125 14.492188 6.660156 15.078125 7.671875 C 15.671875 8.679688 16.015625 9.800781 16.109375 11.03125 Z M 3.078125 10.71875 C 3.140625 11.632812 3.414062 12.472656 3.90625 13.234375 C 4.394531 13.992188 5.039062 14.582031 5.84375 15 C 6.65625 15.414062 7.53125 15.585938 8.46875 15.515625 C 9.4375 15.453125 10.289062 15.175781 11.03125 14.6875 C 11.78125 14.195312 12.347656 13.554688 12.734375 12.765625 C 13.128906 11.984375 13.296875 11.128906 13.234375 10.203125 C 13.140625 8.953125 12.710938 7.910156 11.953125 7.078125 C 11.203125 6.242188 10.226562 5.734375 9.03125 5.546875 L 6.59375 5.71875 C 5.476562 5.988281 4.59375 6.585938 3.9375 7.515625 C 3.28125 8.441406 2.992188 9.507812 3.078125 10.71875 Z M 3.078125 10.71875"/></g><g id="m"><path d="M 13.140625 14.4375 C 12.921875 15.78125 12.394531 16.953125 11.5625 17.953125 C 10.726562 18.953125 9.671875 19.664062 8.390625 20.09375 C 7.109375 20.53125 5.703125 20.625 4.171875 20.375 C 2.648438 20.132812 1.367188 19.582031 0.328125 18.71875 C -0.710938 17.863281 -1.453125 16.785156 -1.890625 15.484375 C -2.335938 14.191406 -2.441406 12.804688 -2.203125 11.328125 C -2.035156 10.285156 -1.644531 9.320312 -1.03125 8.4375 C -0.414062 7.5625 0.320312 6.898438 1.1875 6.453125 L -7.9375 4.96875 L -7.40625 1.71875 L 14.28125 5.234375 L 13.8125 8.046875 L 11.3125 7.9375 C 12.039062 8.8125 12.570312 9.8125 12.90625 10.9375 C 13.25 12.0625 13.328125 13.226562 13.140625 14.4375 Z M 0.515625 11.15625 C 0.367188 12.0625 0.445312 12.9375 0.75 13.78125 C 1.0625 14.632812 1.554688 15.359375 2.234375 15.953125 C 2.921875 16.546875 3.726562 16.914062 4.65625 17.0625 C 5.613281 17.21875 6.515625 17.140625 7.359375 16.828125 C 8.203125 16.523438 8.90625 16.035156 9.46875 15.359375 C 10.03125 14.691406 10.382812 13.898438 10.53125 12.984375 C 10.726562 11.742188 10.554688 10.628906 10.015625 9.640625 C 9.472656 8.660156 8.640625 7.9375 7.515625 7.46875 L 5.109375 7.078125 C 3.953125 7.085938 2.945312 7.472656 2.09375 8.234375 C 1.238281 8.992188 0.710938 9.96875 0.515625 11.15625 Z M 0.515625 11.15625"/></g><g id="b"><path d="M 90.671875 21.859375 C 89.953125 21.230469 88.875 21.320312 88.242188 22.128906 C 85.636719 25.277344 83.117188 26.804688 80.597656 26.714844 C 74.480469 26.535156 67.734375 17 60.539062 7.015625 C 55.410156 -0.269531 49.742188 -8.277344 43.265625 -14.390625 C 48.125 -16.011719 52.890625 -18.351562 57.480469 -21.5 C 66.023438 -27.34375 73.671875 -35.710938 79.160156 -44.976562 C 87.433594 -59.097656 89.324219 -73.132812 84.105469 -81.585938 C 81.316406 -86.175781 75.109375 -91.390625 61.4375 -90.402344 C 40.75 -88.964844 16.730469 -75.378906 8.097656 -60.089844 C 3.6875 -52.441406 3.328125 -44.707031 6.835938 -37.601562 C 7.285156 -36.789062 8.277344 -36.429688 9.175781 -36.878906 C 9.984375 -37.242188 10.34375 -38.320312 9.894531 -39.21875 C 6.835938 -45.246094 7.285156 -51.722656 11.0625 -58.378906 C 19.160156 -72.5 42.277344 -85.636719 61.707031 -86.984375 C 71.152344 -87.613281 77.808594 -85.183594 81.136719 -79.789062 C 85.726562 -72.410156 83.835938 -59.730469 76.191406 -46.683594 C 65.933594 -29.414062 52.171875 -20.507812 40.117188 -17.089844 C 38.679688 -18.261719 37.242188 -19.339844 35.710938 -20.238281 C 34.183594 -21.230469 32.652344 -22.039062 31.125 -22.757812 C 32.023438 -26.175781 32.832031 -29.503906 33.550781 -32.652344 C 37.601562 -48.84375 41.289062 -64.136719 43.355469 -73.402344 C 43.535156 -74.300781 42.996094 -75.199219 42.007812 -75.46875 C 41.109375 -75.648438 40.207031 -75.019531 40.027344 -74.121094 C 37.960938 -64.855469 34.183594 -49.652344 30.222656 -33.460938 C 29.414062 -30.222656 28.695312 -27.074219 27.886719 -24.105469 C 22.757812 -25.996094 18.53125 -25.996094 15.921875 -24.015625 C 14.300781 -22.667969 13.671875 -20.6875 14.300781 -18.710938 C 15.203125 -16.011719 18.441406 -13.042969 25.007812 -12.234375 C 10.523438 47.585938 10.792969 51.363281 13.582031 52.351562 C 13.851562 52.441406 14.121094 52.441406 14.300781 52.441406 C 16.011719 52.441406 17.359375 50.105469 19.699219 44.976562 C 20.058594 44.167969 19.699219 43.085938 18.800781 42.726562 C 17.902344 42.367188 16.910156 42.726562 16.460938 43.628906 C 16.28125 44.078125 16.011719 44.617188 15.832031 45.066406 C 17.359375 34.722656 23.027344 10.523438 28.515625 -12.054688 C 32.113281 -11.964844 35.710938 -12.414062 39.398438 -13.222656 C 46.234375 -7.285156 52.261719 1.257812 57.75 8.996094 C 65.753906 20.238281 72.589844 29.953125 80.507812 30.222656 C 80.597656 30.222656 80.6875 30.222656 80.777344 30.222656 C 84.375 30.222656 87.703125 28.246094 90.941406 24.289062 C 91.570312 23.566406 91.390625 22.488281 90.671875 21.859375 Z M 17.628906 -19.789062 C 17.449219 -20.417969 17.539062 -20.867188 18.082031 -21.230469 C 18.800781 -21.859375 19.789062 -22.128906 20.957031 -22.128906 C 22.757812 -22.128906 24.917969 -21.5 27.074219 -20.6875 C 26.625 -18.980469 26.265625 -17.269531 25.816406 -15.652344 C 20.957031 -16.191406 18.171875 -18.082031 17.628906 -19.789062 Z M 29.414062 -15.472656 C 29.683594 -16.730469 29.953125 -17.992188 30.3125 -19.25 C 31.664062 -18.621094 32.921875 -17.902344 33.914062 -17.269531 C 34.542969 -16.910156 35.171875 -16.550781 35.710938 -16.101562 C 33.550781 -15.742188 31.394531 -15.5625 29.414062 -15.472656 Z M 29.414062 -15.472656"/></g><g id="c"><path d="M 112.53125 -77.539062 C 112.261719 -82.757812 110.640625 -85.546875 107.761719 -85.816406 C 98.769531 -86.894531 82.488281 -56.308594 67.824219 -12.054688 C 74.03125 -56.039062 70.164062 -63.417969 65.753906 -64.40625 C 63.597656 -64.855469 57.210938 -66.296875 39.847656 -26.355469 C 31.933594 -8.277344 23.746094 14.03125 16.910156 35.800781 C 22.9375 6.386719 34.902344 -45.875 38.859375 -62.335938 C 41.378906 -72.953125 40.839844 -79.25 37.332031 -81.496094 C 35.441406 -82.667969 31.933594 -83.117188 25.726562 -78.347656 C 19.429688 -73.492188 12.503906 -64.765625 7.554688 -55.679688 C 4.226562 -49.472656 -0.898438 -37.78125 2.070312 -28.964844 C 4.859375 -20.6875 13.492188 -18.800781 20.238281 -18.710938 C 21.230469 -18.710938 21.949219 -19.429688 21.949219 -20.417969 C 22.039062 -21.410156 21.230469 -22.128906 20.238281 -22.128906 C 12.054688 -22.308594 7.105469 -24.917969 5.308594 -30.132812 C 1.257812 -42.367188 16.011719 -66.386719 27.886719 -75.648438 C 31.304688 -78.257812 34.183594 -79.429688 35.53125 -78.527344 C 36.25 -78.078125 38.410156 -75.558594 35.441406 -63.148438 C 33.820312 -56.21875 26.894531 -26.535156 20.507812 2.429688 C 17.089844 18.171875 14.390625 30.765625 12.59375 39.757812 C 11.605469 44.976562 10.882812 49.023438 10.433594 51.8125 C 9.804688 56.039062 9.625 57.839844 11.425781 58.378906 C 11.605469 58.46875 11.785156 58.558594 12.054688 58.558594 C 13.492188 58.558594 14.210938 56.582031 15.023438 54.421875 C 15.023438 54.332031 15.023438 54.332031 15.113281 54.242188 C 22.578125 27.4375 33.011719 -2.160156 42.996094 -25.007812 C 59.007812 -61.886719 64.765625 -61.078125 65.035156 -60.988281 C 65.125 -60.988281 67.914062 -60.179688 67.554688 -44.886719 C 67.195312 -32.5625 64.945312 -13.761719 60.808594 10.792969 C 60.628906 11.695312 61.257812 12.59375 62.15625 12.773438 C 63.058594 12.953125 63.957031 12.503906 64.136719 11.605469 C 74.660156 -24.648438 84.285156 -47.136719 90.582031 -59.636719 C 99.667969 -77.71875 105.425781 -82.398438 107.3125 -82.398438 C 107.3125 -82.398438 107.402344 -82.398438 107.402344 -82.398438 C 108.121094 -82.308594 108.933594 -80.777344 109.113281 -77.359375 C 109.832031 -66.023438 104.433594 -36.339844 99.667969 -10.164062 C 91.480469 34.722656 90.671875 42.816406 94.179688 44.078125 C 96.339844 44.886719 98.046875 42.367188 99.488281 39.847656 C 99.9375 39.039062 99.667969 37.960938 98.859375 37.511719 C 98.046875 37.058594 96.96875 37.332031 96.429688 38.140625 C 96.160156 38.679688 95.890625 39.128906 95.621094 39.488281 C 95.441406 32.5625 99.667969 9.445312 103.085938 -9.535156 C 108.121094 -37.242188 113.339844 -65.84375 112.53125 -77.539062 Z M 112.53125 -77.539062"/></g><g id="d"><path d="M 81.585938 -87.433594 C 74.839844 -92.023438 63.957031 -92.652344 51.09375 -89.144531 C 49.5625 -88.785156 48.125 -88.332031 46.59375 -87.792969 C 46.683594 -88.152344 46.773438 -88.511719 46.867188 -88.875 C 47.046875 -89.773438 46.414062 -90.671875 45.515625 -90.941406 C 44.617188 -91.121094 43.628906 -90.492188 43.445312 -89.59375 C 43.265625 -88.601562 42.996094 -87.523438 42.726562 -86.355469 C 33.730469 -82.847656 25.097656 -77.808594 18.351562 -71.871094 C 5.578125 -60.71875 1.347656 -48.304688 6.746094 -37.601562 C 7.105469 -36.789062 8.1875 -36.429688 8.996094 -36.878906 C 9.894531 -37.242188 10.253906 -38.320312 9.804688 -39.21875 C 7.105469 -44.527344 4.949219 -55.589844 20.597656 -69.261719 C 26.445312 -74.390625 33.914062 -78.886719 41.738281 -82.214844 C 39.667969 -73.222656 36.699219 -60.988281 33.371094 -47.40625 C 28.15625 -26.175781 22.308594 -2.160156 18.082031 16.640625 C 15.742188 26.984375 14.121094 34.632812 13.222656 40.117188 C 11.695312 49.292969 12.054688 51.09375 13.851562 51.722656 C 14.03125 51.8125 14.300781 51.8125 14.574219 51.8125 C 16.191406 51.8125 17.449219 49.652344 19.519531 44.976562 C 19.96875 44.167969 19.519531 43.085938 18.710938 42.726562 C 17.8125 42.367188 16.730469 42.726562 16.371094 43.628906 C 16.28125 43.898438 16.101562 44.167969 16.011719 44.347656 C 17.449219 33.914062 23.207031 9.175781 29.144531 -15.382812 C 31.304688 -10.792969 35.351562 -8.003906 40.660156 -7.644531 C 41.019531 -7.644531 41.46875 -7.644531 41.828125 -7.644531 C 48.664062 -7.644531 56.761719 -11.605469 64.136719 -18.621094 C 73.042969 -27.074219 80.597656 -39.488281 85.996094 -54.601562 C 93.101562 -74.390625 87.523438 -83.386719 81.585938 -87.433594 Z M 82.757812 -55.769531 C 76.191406 -37.421875 67.734375 -26.804688 61.707031 -21.050781 C 54.601562 -14.300781 47.046875 -10.703125 40.929688 -11.152344 C 35.800781 -11.425781 32.382812 -14.574219 31.304688 -19.96875 C 31.125 -20.417969 30.855469 -20.777344 30.492188 -21.050781 C 32.652344 -29.953125 34.8125 -38.679688 36.699219 -46.59375 C 40.296875 -61.4375 43.535156 -74.570312 45.695312 -83.835938 C 47.765625 -84.554688 49.921875 -85.273438 51.992188 -85.816406 C 63.777344 -88.964844 73.851562 -88.511719 79.699219 -84.554688 C 88.511719 -78.527344 86.265625 -65.574219 82.757812 -55.769531 Z M 82.757812 -55.769531"/></g><clipPath id="a"><path d="M 109.695312 117.554688 L 140.445312 117.554688 L 140.445312 147.554688 L 109.695312 147.554688 Z M 109.695312 117.554688"/></clipPath><clipPath id="n"><path d="M 284.761719 307.808594 L 315.511719 307.808594 L 315.511719 337.808594 L 284.761719 337.808594 Z M 284.761719 307.808594"/></clipPath></defs><g clip-path="url(#a)"><path fill="#3B3A37" d="M 134.152344 117.5625 L 128.332031 129.898438 L 140.445312 135.8125 L 127.125 134.007812 L 125.328125 147.546875 L 122.917969 134.105469 L 109.695312 136.558594 L 121.519531 130.042969 L 115.132812 118.042969 L 124.855469 127.445312 Z M 134.152344 117.5625"/></g><g><use x="11.96" y="246.304" xmlns:xlink="http://www.w3.org/1999/xlink" xlink:href="#b" xlink:type="simple" xlink:actuate="onLoad" xlink:show="embed"/></g><g><use x="94.785" y="246.304" xmlns:xlink="http://www.w3.org/1999/xlink" xlink:href="#c" xlink:type="simple" xlink:actuate="onLoad" xlink:show="embed"/></g><g><use x="208.724" y="246.304" xmlns:xlink="http://www.w3.org/1999/xlink" xlink:href="#d" xlink:type="simple" xlink:actuate="onLoad" xlink:show="embed"/></g><g><use x="194.123" y="110.292" xmlns:xlink="http://www.w3.org/1999/xlink" xlink:href="#e" xlink:type="simple" xlink:actuate="onLoad" xlink:show="embed"/></g><g><use x="223.802" y="106.719" xmlns:xlink="http://www.w3.org/1999/xlink" xlink:href="#f" xlink:type="simple" xlink:actuate="onLoad" xlink:show="embed"/></g><g><use x="251.197" y="110.261" xmlns:xlink="http://www.w3.org/1999/xlink" xlink:href="#g" xlink:type="simple" xlink:actuate="onLoad" xlink:show="embed"/></g><g><use x="270.15" y="116.612" xmlns:xlink="http://www.w3.org/1999/xlink" xlink:href="#h" xlink:type="simple" xlink:actuate="onLoad" xlink:show="embed"/></g><g><use x="284.626" y="123.626" xmlns:xlink="http://www.w3.org/1999/xlink" xlink:href="#i" xlink:type="simple" xlink:actuate="onLoad" xlink:show="embed"/></g><g><use x="305.564" y="139.422" xmlns:xlink="http://www.w3.org/1999/xlink" xlink:href="#j" xlink:type="simple" xlink:actuate="onLoad" xlink:show="embed"/></g><g><use x="332.325" y="176.823" xmlns:xlink="http://www.w3.org/1999/xlink" xlink:href="#k" xlink:type="simple" xlink:actuate="onLoad" xlink:show="embed"/></g><g><use x="341.147" y="206.839" xmlns:xlink="http://www.w3.org/1999/xlink" xlink:href="#l" xlink:type="simple" xlink:actuate="onLoad" xlink:show="embed"/></g><g><use x="342.359" y="234.412" xmlns:xlink="http://www.w3.org/1999/xlink" xlink:href="#m" xlink:type="simple" xlink:actuate="onLoad" xlink:show="embed"/></g><g clip-path="url(#n)"><path fill="#3B3A37" d="M 309.222656 307.816406 L 303.402344 320.152344 L 315.511719 326.066406 L 302.195312 324.261719 L 300.398438 337.800781 L 297.984375 324.359375 L 284.761719 326.8125 L 296.589844 320.296875 L 290.203125 308.300781 L 299.925781 317.699219 Z M 309.222656 307.816406"/></g></svg>